<svg xmlns="http://www.w3.org/2000/svg" xmlns:xlink="http://www.w3.org/1999/xlink" width="40" zoomAndPan="magnify" viewBox="0 0 30 30.000001" height="40" preserveAspectRatio="xMidYMid meet" version="1.0"><defs><clipPath id="7753ac0a7e"><path d="M 4.910156 4.425781 L 25.234375 4.425781 L 25.234375 24.75 L 4.910156 24.75 Z M 4.910156 4.425781 " clip-rule="nonzero"/></clipPath></defs><path fill="#000000" d="M 11.1875 11.136719 C 11.148438 11 11.007812 10.925781 10.871094 10.964844 C 10.738281 11.003906 10.660156 11.144531 10.699219 11.277344 C 10.738281 11.410156 10.878906 11.488281 11.015625 11.449219 C 11.148438 11.410156 11.226562 11.269531 11.1875 11.136719 Z M 11.1875 11.136719 " fill-opacity="1" fill-rule="nonzero"/><path fill="#000000" d="M 11.578125 12.464844 C 11.539062 12.328125 11.398438 12.253906 11.261719 12.292969 C 11.128906 12.332031 11.050781 12.472656 11.089844 12.605469 C 11.132812 12.742188 11.273438 12.816406 11.40625 12.777344 C 11.539062 12.738281 11.617188 12.597656 11.578125 12.464844 Z M 11.578125 12.464844 " fill-opacity="1" fill-rule="nonzero"/><path fill="#000000" d="M 11.484375 13.9375 C 11.523438 14.070312 11.664062 14.144531 11.796875 14.105469 C 11.933594 14.066406 12.007812 13.925781 11.96875 13.792969 C 11.929688 13.660156 11.789062 13.582031 11.65625 13.621094 C 11.519531 13.660156 11.445312 13.800781 11.484375 13.9375 Z M 11.484375 13.9375 " fill-opacity="1" fill-rule="nonzero"/><g clip-path="url(#7753ac0a7e)"><path fill="#000000" d="M 25.121094 8.570312 L 23.21875 7.507812 L 17.78125 4.464844 C 17.746094 4.441406 17.699219 4.4375 17.65625 4.449219 C 17.617188 4.460938 17.582031 4.492188 17.5625 4.527344 L 15.519531 8.378906 C 15.289062 8.195312 15.003906 8.082031 14.707031 8.058594 L 12.027344 7.84375 C 11.808594 7.472656 11.355469 7.285156 11.335938 7.277344 C 11.328125 7.273438 11.324219 7.273438 11.316406 7.273438 C 11.304688 7.269531 11.292969 7.265625 11.28125 7.265625 C 11.273438 7.265625 11.261719 7.265625 11.253906 7.269531 C 11.246094 7.269531 11.238281 7.269531 11.230469 7.269531 L 8.566406 8.046875 C 8.558594 8.050781 8.554688 8.054688 8.546875 8.058594 C 8.539062 8.0625 8.527344 8.066406 8.519531 8.074219 C 8.511719 8.082031 8.503906 8.089844 8.496094 8.097656 C 8.492188 8.101562 8.484375 8.105469 8.480469 8.109375 C 8.46875 8.128906 8.1875 8.53125 8.207031 8.960938 L 6.066406 10.582031 C 5.742188 10.832031 5.527344 11.207031 5.484375 11.613281 L 5.003906 16.222656 L 4.910156 17.085938 C 4.90625 17.148438 4.933594 17.207031 4.984375 17.238281 C 5.527344 17.582031 6.148438 17.753906 6.847656 17.753906 C 7.257812 17.753906 7.695312 17.691406 8.15625 17.570312 L 9.929688 24.183594 C 9.949219 24.25 10.011719 24.300781 10.082031 24.300781 C 10.082031 24.300781 10.089844 24.300781 10.097656 24.300781 C 10.152344 24.300781 10.371094 24.300781 10.734375 24.269531 C 10.777344 24.265625 10.816406 24.242188 10.847656 24.210938 C 10.875 24.175781 10.886719 24.132812 10.882812 24.089844 L 10.761719 23.058594 L 11.367188 24.101562 C 11.398438 24.15625 11.464844 24.1875 11.527344 24.179688 C 12.441406 24.050781 13.410156 23.84375 14.40625 23.558594 L 16.546875 24.714844 C 16.570312 24.726562 16.59375 24.734375 16.621094 24.734375 C 16.636719 24.734375 16.652344 24.730469 16.667969 24.726562 C 16.710938 24.714844 16.746094 24.6875 16.765625 24.648438 L 18.101562 22.128906 C 18.488281 21.925781 18.761719 21.769531 18.765625 21.765625 C 18.828125 21.726562 18.859375 21.648438 18.835938 21.578125 L 18.667969 21.058594 L 19.425781 19.632812 L 20.640625 20.492188 C 20.667969 20.511719 20.703125 20.523438 20.734375 20.523438 C 20.746094 20.523438 20.753906 20.519531 20.765625 20.519531 C 20.808594 20.511719 20.84375 20.484375 20.867188 20.449219 L 22.554688 17.882812 C 22.601562 17.8125 22.585938 17.714844 22.515625 17.664062 L 21.042969 16.585938 L 25.183594 8.789062 C 25.222656 8.710938 25.195312 8.613281 25.121094 8.570312 Z M 23.589844 8.082031 L 23.109375 8.910156 L 22.71875 8.683594 L 23.195312 7.863281 Z M 19.398438 5.738281 L 18.902344 6.589844 L 18.511719 6.367188 L 19.003906 5.515625 Z M 17.769531 4.824219 L 18.722656 5.359375 L 18.152344 6.34375 C 18.132812 6.382812 18.125 6.425781 18.136719 6.46875 C 18.148438 6.507812 18.175781 6.542969 18.210938 6.566406 L 18.878906 6.949219 C 18.90625 6.964844 18.933594 6.972656 18.960938 6.972656 C 19.015625 6.972656 19.070312 6.941406 19.101562 6.890625 L 19.675781 5.894531 L 20.769531 6.507812 L 18.945312 9.945312 C 18.859375 10.113281 18.832031 10.292969 18.859375 10.460938 L 17.976562 11.371094 L 15.757812 8.613281 L 16.335938 7.519531 L 17.792969 6.726562 C 17.871094 6.683594 17.898438 6.585938 17.855469 6.507812 C 17.8125 6.429688 17.714844 6.402344 17.636719 6.441406 L 16.613281 7.003906 Z M 16.742188 15.066406 C 16.992188 14.984375 17.226562 14.890625 17.445312 14.785156 L 16.996094 15.855469 Z M 16.640625 14.753906 L 16.484375 14.265625 C 17.390625 13.902344 18.085938 13.34375 18.554688 12.605469 L 18.894531 13.027344 C 18.492188 13.820312 17.734375 14.398438 16.640625 14.753906 Z M 18.566406 12.109375 L 18.179688 11.625 L 18.988281 10.792969 C 19.011719 10.832031 19.039062 10.867188 19.070312 10.902344 Z M 11.78125 8.0625 C 11.96875 8.484375 12.089844 10.257812 11.839844 10.429688 C 11.710938 10.519531 11.152344 10.121094 10.664062 9.601562 L 11.363281 7.652344 C 11.511719 7.738281 11.699219 7.882812 11.78125 8.0625 Z M 10.402344 9.375 L 8.960938 8.269531 L 11.015625 7.667969 Z M 8.535156 9.011719 C 8.503906 8.804688 8.589844 8.582031 8.660156 8.441406 L 10.304688 9.707031 C 10.179688 10.402344 9.929688 11.035156 9.773438 11.035156 C 9.769531 11.035156 9.769531 11.035156 9.769531 11.035156 C 9.464844 11.023438 8.605469 9.46875 8.535156 9.011719 Z M 10.582031 9.976562 C 10.761719 10.15625 11 10.375 11.242188 10.535156 L 12.34375 14.273438 L 11.429688 14.542969 L 10.328125 10.804688 C 10.445312 10.539062 10.527344 10.222656 10.582031 9.976562 Z M 5.242188 17.019531 L 5.300781 16.484375 C 5.832031 16.730469 6.40625 16.855469 7.015625 16.855469 C 7.316406 16.855469 7.625 16.824219 7.941406 16.765625 L 8.074219 17.261719 C 6.960938 17.550781 6.011719 17.472656 5.242188 17.019531 Z M 16.554688 24.355469 L 14.847656 23.429688 C 15.859375 23.117188 16.601562 22.8125 17.191406 22.546875 C 17.25 22.523438 17.285156 22.464844 17.285156 22.402344 L 17.300781 20.972656 L 17.804688 22.003906 Z M 18.054688 21.789062 L 17.292969 20.21875 C 17.257812 20.152344 17.183594 20.113281 17.109375 20.132812 C 17.039062 20.148438 16.988281 20.210938 16.984375 20.285156 L 16.964844 22.292969 C 16.347656 22.566406 15.566406 22.886719 14.480469 23.203125 C 13.476562 23.496094 12.507812 23.710938 11.589844 23.84375 L 10.652344 22.230469 C 10.613281 22.164062 10.535156 22.132812 10.460938 22.160156 C 10.390625 22.183594 10.34375 22.253906 10.351562 22.328125 L 10.542969 23.960938 C 10.398438 23.96875 10.285156 23.976562 10.207031 23.976562 L 7.175781 12.65625 C 7.152344 12.570312 7.0625 12.519531 6.976562 12.542969 C 6.890625 12.566406 6.839844 12.652344 6.863281 12.738281 L 7.859375 16.449219 C 6.933594 16.621094 6.085938 16.519531 5.335938 16.140625 L 5.804688 11.648438 C 5.839844 11.328125 6.003906 11.035156 6.261719 10.839844 L 8.285156 9.304688 C 8.519531 9.941406 9.242188 11.339844 9.757812 11.355469 C 9.761719 11.355469 9.765625 11.355469 9.769531 11.355469 C 9.898438 11.355469 10.007812 11.285156 10.101562 11.175781 L 11.167969 14.789062 C 11.1875 14.855469 11.25 14.902344 11.320312 14.902344 C 11.335938 14.902344 11.351562 14.902344 11.367188 14.894531 L 12.589844 14.539062 C 12.628906 14.527344 12.664062 14.5 12.683594 14.460938 C 12.707031 14.421875 12.710938 14.378906 12.699219 14.339844 L 11.636719 10.730469 C 11.695312 10.746094 11.753906 10.757812 11.808594 10.757812 C 11.886719 10.757812 11.957031 10.738281 12.023438 10.695312 C 12.445312 10.402344 12.296875 8.839844 12.144531 8.175781 L 14.679688 8.378906 C 15.003906 8.402344 15.304688 8.5625 15.507812 8.8125 L 18.339844 12.339844 C 17.910156 13.0625 17.253906 13.605469 16.386719 13.957031 L 15.207031 10.300781 C 15.179688 10.214844 15.089844 10.167969 15.003906 10.195312 C 14.921875 10.222656 14.875 10.3125 14.902344 10.398438 L 18.339844 21.089844 L 18.488281 21.550781 C 18.394531 21.605469 18.242188 21.6875 18.054688 21.789062 Z M 22.203125 17.832031 L 20.691406 20.132812 L 19.578125 19.34375 L 20.890625 16.871094 Z M 23.726562 10.84375 L 23.5625 9.765625 C 23.550781 9.679688 23.46875 9.617188 23.378906 9.632812 C 23.292969 9.644531 23.230469 9.726562 23.246094 9.816406 L 23.472656 11.320312 L 18.53125 20.632812 L 17.148438 16.328125 L 17.894531 14.539062 C 18.507812 14.160156 18.953125 13.671875 19.226562 13.074219 C 19.253906 13.019531 19.246094 12.953125 19.207031 12.90625 L 18.796875 12.394531 L 19.335938 11.101562 L 19.425781 11.152344 C 19.453125 11.167969 19.480469 11.171875 19.507812 11.171875 C 19.5625 11.171875 19.617188 11.144531 19.648438 11.089844 C 19.691406 11.015625 19.664062 10.914062 19.585938 10.871094 L 19.429688 10.785156 C 19.1875 10.644531 19.097656 10.34375 19.230469 10.097656 L 21.050781 6.664062 L 22.914062 7.707031 L 22.359375 8.664062 C 22.339844 8.699219 22.332031 8.746094 22.34375 8.785156 C 22.355469 8.828125 22.382812 8.863281 22.417969 8.882812 L 23.089844 9.269531 C 23.113281 9.28125 23.140625 9.289062 23.167969 9.289062 C 23.222656 9.289062 23.277344 9.261719 23.308594 9.210938 L 23.867188 8.242188 L 24.824219 8.773438 Z M 23.726562 10.84375 " fill-opacity="1" fill-rule="nonzero"/></g><path fill="#000000" d="M 21.398438 7.191406 C 21.121094 7.191406 20.898438 7.417969 20.898438 7.695312 C 20.898438 7.96875 21.121094 8.195312 21.398438 8.195312 C 21.675781 8.195312 21.902344 7.96875 21.902344 7.695312 C 21.902344 7.417969 21.675781 7.191406 21.398438 7.191406 Z M 21.398438 7.875 C 21.300781 7.875 21.21875 7.792969 21.21875 7.695312 C 21.21875 7.59375 21.300781 7.515625 21.398438 7.515625 C 21.5 7.515625 21.578125 7.59375 21.578125 7.695312 C 21.578125 7.792969 21.5 7.875 21.398438 7.875 Z M 21.398438 7.875 " fill-opacity="1" fill-rule="nonzero"/></svg>