<svg width="20" height="20" viewBox="0 0 20 20" fill="none" xmlns="http://www.w3.org/2000/svg">
<path d="M19.9885 18.4569L17.648 1.20196C17.6029 0.870099 17.4278 0.564835 17.1557 0.343511C16.8837 0.122187 16.5332 3.46547e-05 16.1703 0H3.82969C3.46677 3.46547e-05 3.11635 0.122187 2.84425 0.343511C2.57216 0.564835 2.39712 0.870099 2.35201 1.20196L0.0115481 18.4569C-0.0147015 18.65 0.00392002 18.8461 0.0661771 19.032C0.128434 19.218 0.232903 19.3897 0.37265 19.5356C0.512397 19.6816 0.684226 19.7984 0.876734 19.8785C1.06924 19.9586 1.27803 20 1.48923 20H5.81802C6.14933 20 6.47117 19.8982 6.73263 19.7107C6.99409 19.5232 7.18025 19.2607 7.26166 18.9647L10 9.21569L12.7373 18.9647C12.8187 19.2608 13.005 19.5234 13.2667 19.711C13.5284 19.8985 13.8505 20.0002 14.182 20H18.5108C18.722 20 18.9308 19.9586 19.1233 19.8785C19.3158 19.7984 19.4876 19.6816 19.6274 19.5356C19.7671 19.3897 19.8716 19.218 19.9338 19.032C19.9961 18.8461 20.0147 18.65 19.9885 18.4569ZM17.1512 7.02549C16.3981 6.92577 15.6982 6.6102 15.1506 6.1235C14.603 5.6368 14.2355 5.00364 14.1001 4.31373H16.7841L17.1512 7.02549ZM3.82969 1.17647H16.1703C16.2224 1.17609 16.2729 1.19335 16.3121 1.22498C16.3513 1.2566 16.3766 1.30039 16.3831 1.34804L16.6246 3.13725H3.37543L3.61692 1.34804C3.62344 1.30039 3.6487 1.2566 3.68791 1.22498C3.72713 1.19335 3.77758 1.17609 3.82969 1.17647ZM3.21585 4.31373H5.89994C5.76454 5.00364 5.397 5.6368 4.84939 6.1235C4.30178 6.6102 3.60188 6.92577 2.84883 7.02549L3.21585 4.31373ZM6.02441 18.6755C6.0128 18.7178 5.9862 18.7554 5.94881 18.7822C5.91142 18.809 5.8654 18.8236 5.81802 18.8235H1.48923C1.4589 18.8237 1.42888 18.818 1.40116 18.8066C1.37345 18.7953 1.34868 18.7786 1.32854 18.7577C1.30839 18.7368 1.29332 18.7122 1.28434 18.6855C1.27535 18.6588 1.27267 18.6307 1.27646 18.6029L2.68606 8.22255C3.81024 8.14777 4.8721 7.7182 5.69275 7.00621C6.5134 6.29422 7.04269 5.34333 7.19145 4.31373H9.36169V6.78824L6.02441 18.6755ZM18.6703 18.7569C18.6504 18.7778 18.6259 18.7945 18.5983 18.806C18.5708 18.8175 18.541 18.8235 18.5108 18.8235H14.182C14.1337 18.8235 14.0869 18.8084 14.0492 18.7806C14.0115 18.7528 13.9852 18.714 13.9745 18.6706L10.6383 6.78824V4.31373H12.8086C12.9573 5.34333 13.4866 6.29422 14.3073 7.00621C15.1279 7.7182 16.1898 8.14777 17.3139 8.22255L18.7235 18.6029C18.727 18.6306 18.7241 18.6586 18.7149 18.6852C18.7058 18.7117 18.6906 18.7362 18.6703 18.7569Z" fill="#717182"/>
</svg>
